# xmcd
# 
# Track frame offsets:
#     150
#     19970
#     39047
#     58373
#     78082
#     96740
#     115939
#     133716
#     150778
#     170325
# 
# Disc length: 2457
# 
# Revision: 0
# Processed by: cddbd v1.5.2PL0 Copyright (c) Steve Scherf et al.
# Submitted via: fre:ac v1.0.27
# 
DISCID=7709970a
DTITLE=動力火車 - 光
DYEAR=2013
DGENRE=POP
TTITLE0=光
TTITLE1=光榮角色
TTITLE2=莫忘初衷
TTITLE3=殘缺的完整
TTITLE4=艾琳娜
TTITLE5=珍惜
TTITLE6=奉陪
TTITLE7=寂寞無賴
TTITLE8=世界之大
TTITLE9=東方的光
EXTD=
EXTT0=
EXTT1=
EXTT2=
EXTT3=
EXTT4=
EXTT5=
EXTT6=
EXTT7=
EXTT8=
EXTT9=
PLAYORDER=
